<svg xmlns="http://www.w3.org/2000/svg" xmlns:xlink="http://www.w3.org/1999/xlink" width="742" height="590" viewBox="0 0 742 590">
  <defs>
    <filter id="_" x="464" y="200" width="161" height="347" filterUnits="userSpaceOnUse">
      <feOffset dy="3" input="SourceAlpha"/>
      <feGaussianBlur stdDeviation="3" result="blur"/>
      <feFlood flood-opacity="0.161"/>
      <feComposite operator="in" in2="blur"/>
      <feComposite in="SourceGraphic"/>
    </filter>
  </defs>
  <g id="Budget_Logo" data-name="Budget Logo" transform="translate(-252 -89)">
    <g id="Rectangle_1" data-name="Rectangle 1" transform="translate(252 89)" fill="#9f9f9f" stroke="#707070" stroke-width="4">
      <rect width="510" height="521" stroke="none"/>
      <rect x="2" y="2" width="506" height="517" fill="none"/>
    </g>
    <rect id="Rectangle_2" data-name="Rectangle 2" width="455" height="148" transform="translate(278 125)" fill="#e5cfcf"/>
    <g id="Rectangle_3" data-name="Rectangle 3" transform="translate(278 295)" fill="#e5cfcf" stroke="#707070" stroke-width="1">
      <rect width="228" height="127" stroke="none"/>
      <rect x="0.5" y="0.5" width="227" height="126" fill="none"/>
    </g>
    <g id="Rectangle_5" data-name="Rectangle 5" transform="translate(278 422)" fill="#e5cfcf" stroke="#707070" stroke-width="1">
      <rect width="228" height="127" stroke="none"/>
      <rect x="0.5" y="0.5" width="227" height="126" fill="none"/>
    </g>
    <g id="Rectangle_4" data-name="Rectangle 4" transform="translate(506 295)" fill="#e5cfcf" stroke="#707070" stroke-width="1">
      <rect width="228" height="127" stroke="none"/>
      <rect x="0.5" y="0.5" width="227" height="126" fill="none"/>
    </g>
    <g id="Rectangle_6" data-name="Rectangle 6" transform="translate(506 422)" fill="#e5cfcf" stroke="#707070" stroke-width="1">
      <rect width="228" height="127" stroke="none"/>
      <rect x="0.5" y="0.5" width="227" height="126" fill="none"/>
    </g>
    <g id="Rectangle_7" data-name="Rectangle 7" transform="translate(420 549)" fill="#fff707" stroke="#707070" stroke-width="5">
      <rect width="346" height="78" rx="39" stroke="none"/>
      <rect x="2.5" y="2.5" width="341" height="73" rx="36.5" fill="none"/>
    </g>
    <g id="Rectangle_8" data-name="Rectangle 8" transform="translate(352 491)" fill="#fff707" stroke="#707070" stroke-width="5">
      <rect width="422" height="85" rx="42.5" stroke="none"/>
      <rect x="2.5" y="2.5" width="417" height="80" rx="40" fill="none"/>
    </g>
    <g id="Rectangle_9" data-name="Rectangle 9" transform="translate(385 443)" fill="#fff707" stroke="#707070" stroke-width="5">
      <rect width="393" height="85" rx="42.5" stroke="none"/>
      <rect x="2.5" y="2.5" width="388" height="80" rx="40" fill="none"/>
    </g>
    <g id="Rectangle_10" data-name="Rectangle 10" transform="translate(467 384)" fill="#fff707" stroke="#707070" stroke-width="5">
      <rect width="312" height="85" rx="42.5" stroke="none"/>
      <rect x="2.5" y="2.5" width="307" height="80" rx="40" fill="none"/>
    </g>
    <g id="Rectangle_11" data-name="Rectangle 11" transform="translate(323 333)" fill="#fff707" stroke="#707070" stroke-width="5">
      <rect width="461" height="85" rx="42.5" stroke="none"/>
      <rect x="2.5" y="2.5" width="456" height="80" rx="40" fill="none"/>
    </g>
    <g id="Ellipse_1" data-name="Ellipse 1" transform="translate(588 273)" fill="#fff707" stroke="#5e5e5e" stroke-width="10">
      <circle cx="203" cy="203" r="203" stroke="none"/>
      <circle cx="203" cy="203" r="198" fill="none"/>
    </g>
    <g transform="matrix(1, 0, 0, 1, 252, 89)" filter="url(#_)">
      <text id="_2" data-name="$" transform="translate(473 473)" fill="#707070" font-size="247" font-family="SegoeUI-Bold, Segoe UI" font-weight="700"><tspan x="0" y="0">$</tspan></text>
    </g>
  </g>
</svg>
